<svg xmlns="http://www.w3.org/2000/svg" xmlns:xlink="http://www.w3.org/1999/xlink" width="832" zoomAndPan="magnify" viewBox="0 0 624 607.499987" height="810" preserveAspectRatio="xMidYMid meet" version="1.0"><defs><clipPath id="78d95b1277"><path d="M 234.125 38.878906 L 563.105469 38.878906 L 563.105469 367.855469 L 234.125 367.855469 Z M 234.125 38.878906 " clip-rule="nonzero"/></clipPath><clipPath id="e910c3013b"><path d="M 194 203.335938 L 217 203.335938 L 217 335 L 194 335 Z M 194 203.335938 " clip-rule="nonzero"/></clipPath><clipPath id="b0a4c67974"><path d="M 193 203.335938 L 218 203.335938 L 218 336 L 193 336 Z M 193 203.335938 " clip-rule="nonzero"/></clipPath></defs><g clip-path="url(#78d95b1277)"><path fill="#00ff00" d="M 398.582031 354.683594 C 315.125 354.683594 247.230469 286.789062 247.230469 203.332031 C 247.230469 119.878906 315.125 51.984375 398.582031 51.984375 C 482.035156 51.984375 549.929688 119.878906 549.929688 203.332031 C 549.929688 286.789062 482.035156 354.683594 398.582031 354.683594 Z M 550.109375 139.320312 C 541.824219 119.734375 529.96875 102.148438 514.867188 87.046875 C 499.765625 71.945312 482.179688 60.085938 462.59375 51.804688 C 442.316406 43.226562 420.78125 38.878906 398.582031 38.878906 C 376.382812 38.878906 354.84375 43.226562 334.566406 51.804688 C 314.980469 60.085938 297.394531 71.945312 282.292969 87.046875 C 267.191406 102.148438 255.335938 119.734375 247.054688 139.320312 C 238.476562 159.59375 234.125 181.132812 234.125 203.332031 C 234.125 225.53125 238.476562 247.070312 247.054688 267.347656 C 255.335938 286.933594 267.191406 304.519531 282.292969 319.621094 C 297.394531 334.722656 314.980469 346.578125 334.566406 354.863281 C 354.84375 363.4375 376.382812 367.785156 398.582031 367.785156 C 420.78125 367.785156 442.316406 363.4375 462.59375 354.863281 C 482.179688 346.578125 499.765625 334.722656 514.867188 319.621094 C 529.96875 304.519531 541.824219 286.933594 550.109375 267.347656 C 558.6875 247.070312 563.035156 225.53125 563.035156 203.332031 C 563.035156 181.132812 558.6875 159.59375 550.109375 139.320312 " fill-opacity="1" fill-rule="nonzero"/></g><path fill="#00ff00" d="M 477.402344 258.851562 L 405.132812 200.210938 L 405.132812 122.433594 C 405.132812 118.816406 402.199219 115.882812 398.582031 115.882812 C 394.964844 115.882812 392.027344 118.816406 392.027344 122.433594 L 392.027344 203.332031 C 392.027344 205.308594 392.921875 207.175781 394.453125 208.421875 L 469.144531 269.027344 C 470.359375 270.011719 471.820312 270.492188 473.269531 270.492188 C 475.175781 270.492188 477.066406 269.660156 478.363281 268.066406 C 480.640625 265.257812 480.210938 261.128906 477.402344 258.851562 " fill-opacity="1" fill-rule="nonzero"/><path stroke-linecap="butt" transform="matrix(0.143923, 0, 0, 0.143931, 371.118094, 387.258452)" fill-opacity="1" fill="#00ff00" fill-rule="evenodd" stroke-linejoin="miter" d="M -1158.499495 131.948622 C -1003.957741 138.217886 -839.943722 8.218879 -645.341618 -393.203939 C -1214.247434 -211.965241 -1656.648312 -329.50714 -1612.055389 -407.099448 C -1581.331598 -460.564593 -1340.860937 -540.192377 -684.696298 -433.04497 C -684.696298 -433.04497 -888.960654 -449.545888 -1111.192457 -463.061442 C -1368.137801 -478.693891 -1558.370178 -456.873598 -1572.863556 -395.890766 C -1578.698905 -319.791139 -943.025841 -302.204635 -644.934501 -394.289526 C -720.739756 -134.427212 -892.434722 198.847902 -1180.429551 181.261398 C -1362.980981 167.040212 -1522.78812 -75.941229 -1632.791234 -294.551248 C -1454.283836 -18.323715 -1318.116646 123.426767 -1158.526636 131.948622 Z M -1158.499495 131.948622 " stroke="#000000" stroke-width="1" stroke-opacity="1" stroke-miterlimit="4"/><path stroke-linecap="butt" transform="matrix(0.143923, 0, 0, 0.143931, 371.118094, 387.258452)" fill-opacity="1" fill="#00ff00" fill-rule="evenodd" stroke-linejoin="miter" d="M -673.161305 -282.664074 C -673.161305 -282.664074 -599.69019 -416.815449 -482.956069 -404.276923 C -310.365445 -385.74053 -608.538208 15.302333 -835.818266 12.20841 C -798.852009 1.325404 -754.964756 -13.601413 -683.529228 -66.768021 C -596.297546 -131.658966 -395.31727 -324.513441 -533.167212 -356.185433 C -584.545424 -367.991188 -673.188447 -282.664074 -673.188447 -282.664074 Z M -673.161305 -282.664074 " stroke="#000000" stroke-width="1" stroke-opacity="1" stroke-miterlimit="4"/><path stroke-linecap="butt" transform="matrix(0.104336, 0, 0, 0.114366, 321.203144, 380.255992)" fill-opacity="1" fill="#00ff00" fill-rule="evenodd" stroke-linejoin="miter" d="M -1486.104668 150.095514 C -1486.104668 150.095514 -2494.18774 266.53187 -1589.62356 460.603847 C -389.440874 718.102728 13.178355 354.789876 14.376404 305.43507 C 19.542988 102.004464 -682.06426 132.676171 -682.06426 132.676171 C -477.460011 157.746363 -466.490378 137.38964 -230.17528 186.881068 C 6.177258 236.406652 -319.205271 524.577239 -816.732417 503.127538 C -1696.998672 465.146539 -2299.916661 308.338293 -1486.142107 150.095514 Z M -1486.104668 150.095514 " stroke="#000000" stroke-width="1.132" stroke-opacity="1" stroke-miterlimit="4"/><g clip-path="url(#e910c3013b)"><path fill="#00ff00" d="M 197.613281 203.476562 C 192.261719 214.8125 190.558594 244.699219 210.472656 259.0625 C 230.382812 273.429688 197.15625 335.019531 195.65625 334.964844 C 194.15625 334.914062 217.148438 280.597656 207.921875 267.65625 C 198.695312 254.714844 197.613281 203.476562 197.613281 203.476562 Z M 197.613281 203.476562 " fill-opacity="1" fill-rule="evenodd"/></g><g clip-path="url(#b0a4c67974)"><path stroke-linecap="butt" transform="matrix(0.090389, 0, 0, 0.0859189, 301.98612, 368.999789)" fill="none" stroke-linejoin="miter" d="M -1154.707131 -1926.504968 C -1213.913027 -1794.567352 -1232.755195 -1446.71942 -1012.440118 -1279.546914 C -792.168257 -1112.328943 -1159.763401 -395.492144 -1176.358338 -396.128645 C -1192.953276 -396.719682 -938.584005 -1028.901815 -1040.660155 -1179.525289 C -1142.736304 -1330.148763 -1154.707131 -1926.504968 -1154.707131 -1926.504968 Z M -1154.707131 -1926.504968 " stroke="#000000" stroke-width="1" stroke-opacity="1" stroke-miterlimit="4"/></g><path stroke-linecap="butt" transform="matrix(0.090389, 0, 0, 0.0859189, 301.98612, 368.999789)" fill-opacity="1" fill="#00ff00" fill-rule="evenodd" stroke-linejoin="miter" d="M -1290.405315 -1752.012698 C -1349.611211 -1637.487937 -1368.496595 -1335.604488 -1148.138302 -1190.482203 C -927.780009 -1045.359918 -1359.464455 -395.492144 -1376.059392 -395.992252 C -1392.654329 -396.537824 -1074.195757 -972.980634 -1176.315123 -1103.736176 C -1278.434488 -1234.446254 -1290.405315 -1752.012698 -1290.405315 -1752.012698 Z M -1290.405315 -1752.012698 " stroke="#000000" stroke-width="0.932" stroke-opacity="1" stroke-miterlimit="4"/><path stroke-linecap="butt" transform="matrix(0.090389, 0, 0, 0.0859189, 301.98612, 368.999789)" fill-opacity="1" fill="#00ff00" fill-rule="evenodd" stroke-linejoin="miter" d="M -878.557006 -1703.50221 C -937.762901 -1593.751209 -1020.651155 -1296.459661 -800.249646 -1157.429603 C -579.891353 -1018.35408 -1011.619015 -395.537608 -1028.213952 -396.037716 C -1044.808889 -396.583289 -726.350316 -948.975444 -828.469682 -1074.229796 C -930.589048 -1199.529614 -878.557006 -1703.50221 -878.557006 -1703.50221 Z M -878.557006 -1703.50221 " stroke="#000000" stroke-width="0.912" stroke-opacity="1" stroke-miterlimit="4"/><path fill="#00ff00" d="M 422.011719 498 C 417.753906 499.625 417.550781 505.535156 417.238281 509.449219 C 416.890625 513.816406 416.773438 518.441406 417.003906 522.828125 C 417.128906 525.203125 419.359375 526.277344 421.464844 526.65625 C 425.589844 527.398438 429.1875 525.902344 432.113281 523.011719 C 433.65625 521.480469 428.976562 520.699219 427.914062 521.808594 C 426.425781 523.367188 422.074219 526.570312 421.398438 522.828125 C 420.988281 520.558594 421.65625 518.027344 422.007812 515.785156 C 422.472656 512.832031 422.777344 509.863281 423.460938 506.949219 C 424.09375 504.246094 425.152344 501.445312 425.269531 498.664062 C 425.328125 497.371094 422.632812 497.765625 422.011719 498 " fill-opacity="1" fill-rule="nonzero"/><path fill="#00ff00" d="M 204.605469 487.242188 C 206.441406 483.035156 205.386719 478.050781 202.226562 474.746094 C 198.777344 471.144531 193.035156 472.699219 189.1875 474.550781 C 178.859375 479.527344 173.464844 491.570312 172.101562 502.375 C 170.679688 513.652344 174.445312 526.453125 185.980469 530.523438 C 191.46875 532.460938 197.941406 531.453125 202.292969 527.597656 C 204.660156 525.503906 206.414062 522.59375 207.664062 519.730469 C 209.207031 516.203125 208.511719 513.257812 208.472656 509.574219 C 208.46875 509.214844 207.582031 509.25 207.449219 509.503906 C 206.28125 511.75 204.59375 513.546875 203.359375 515.722656 C 202.195312 517.777344 201.238281 519.953125 200.042969 521.996094 C 197.03125 527.15625 192.714844 529.714844 187.113281 526.867188 C 179.59375 523.042969 178.121094 511.722656 178.246094 504.273438 C 178.378906 495.914062 181.328125 487.253906 186.898438 480.949219 C 189.421875 478.089844 195.058594 472.894531 198.933594 475.691406 C 202.34375 478.15625 202.851562 483.289062 202.898438 487.128906 C 202.90625 487.710938 204.410156 487.691406 204.605469 487.242188 " fill-opacity="1" fill-rule="nonzero"/><path fill="#00ff00" d="M 215.097656 500.441406 C 205.527344 504.339844 198.777344 524.851562 210.164062 530.679688 C 214.925781 533.117188 221.382812 532.273438 224.953125 528.101562 C 229.121094 523.222656 230.195312 514.398438 229.582031 508.265625 C 229.042969 502.84375 224.96875 496.488281 218.757812 497.324219 C 211.5625 498.296875 215.089844 505.695312 217.082031 509.738281 C 219.289062 514.214844 221.964844 520.140625 226.886719 522.199219 C 231.207031 524.003906 236.886719 521.089844 237.988281 516.585938 C 238.242188 515.546875 235.5 515.835938 235.074219 516.199219 C 233.441406 517.605469 232.355469 519.523438 230.433594 520.589844 C 228.875 521.457031 226.855469 518.730469 226.128906 517.796875 C 223.964844 515.015625 222.535156 511.636719 221.105469 508.441406 C 220.402344 506.867188 219.535156 505.269531 219.121094 503.585938 C 218.863281 502.519531 219.074219 501.429688 219.492188 500.441406 C 220.054688 499.113281 222.472656 502.367188 222.488281 502.382812 C 225.167969 506 224.929688 511.230469 224.390625 515.449219 C 223.910156 519.25 222.902344 523.640625 220.648438 526.804688 C 216.886719 532.085938 211.800781 528.492188 210.125 523.722656 C 207.472656 516.171875 210.3125 505.878906 216.734375 501.0625 C 217.527344 500.464844 215.453125 500.296875 215.097656 500.441406 " fill-opacity="1" fill-rule="nonzero"/><path fill="#00ff00" d="M 239.03125 498.71875 C 244.28125 495.875 246.554688 489.460938 248.472656 484.132812 C 250.222656 479.28125 251.84375 473.492188 251.007812 468.300781 C 250.464844 464.933594 244.828125 462.527344 242.5 465.578125 C 239.707031 469.238281 239.519531 475.527344 239.035156 479.921875 C 236.09375 506.71875 231.65625 533.351562 227.53125 559.984375 C 227.335938 561.242188 231.269531 561.398438 231.523438 559.984375 C 235.632812 536.894531 239.398438 513.730469 242.351562 490.460938 C 242.914062 486 243.304688 481.515625 243.898438 477.054688 C 244.210938 474.726562 244.628906 472.410156 245.183594 470.125 C 245.449219 469.042969 245.820312 468.007812 246.292969 467.003906 C 246.726562 466.300781 246.648438 466.375 246.054688 467.222656 C 246.605469 467.941406 246.613281 468.996094 246.675781 469.855469 C 247.019531 474.75 245.382812 479.933594 244.054688 484.570312 C 242.679688 489.378906 240.65625 494.375 237.4375 498.265625 C 236.984375 498.8125 238.769531 498.863281 239.03125 498.71875 " fill-opacity="1" fill-rule="nonzero"/><path fill="#00ff00" d="M 255.644531 498.71875 C 260.894531 495.875 263.167969 489.460938 265.085938 484.132812 C 266.832031 479.28125 268.457031 473.492188 267.621094 468.300781 C 267.078125 464.933594 261.4375 462.527344 259.113281 465.578125 C 256.316406 469.238281 256.128906 475.527344 255.648438 479.921875 C 252.703125 506.71875 248.269531 533.351562 244.140625 559.984375 C 243.949219 561.242188 247.882812 561.398438 248.132812 559.984375 C 252.246094 536.894531 256.011719 513.730469 258.960938 490.460938 C 259.527344 486 259.914062 481.515625 260.507812 477.054688 C 260.820312 474.726562 261.238281 472.410156 261.796875 470.125 C 262.058594 469.042969 262.429688 468.007812 262.90625 467.003906 C 263.339844 466.300781 263.261719 466.375 262.667969 467.222656 C 263.21875 467.941406 263.226562 468.996094 263.285156 469.855469 C 263.632812 474.75 261.996094 479.933594 260.667969 484.570312 C 259.292969 489.378906 257.265625 494.375 254.050781 498.265625 C 253.597656 498.8125 255.382812 498.863281 255.644531 498.71875 " fill-opacity="1" fill-rule="nonzero"/><path fill="#00ff00" d="M 231.894531 521.140625 C 238.132812 518.976562 242.480469 512.117188 246.949219 507.566406 C 249.511719 504.957031 251.734375 502.128906 254.085938 499.332031 C 256.128906 496.90625 258.976562 494.511719 259.722656 491.339844 C 259.804688 490.988281 258.894531 491.09375 258.75 491.210938 C 253.140625 495.808594 249.285156 501.792969 244.101562 506.753906 C 241.597656 509.148438 239.363281 511.851562 237.023438 514.40625 C 235.253906 516.335938 232.417969 518.601562 231.761719 521.105469 L 231.894531 521.140625 " fill-opacity="1" fill-rule="nonzero"/><path fill="#00ff00" d="M 251.695312 521.652344 C 255.152344 522.449219 258.628906 520.9375 261.8125 519.722656 C 266.417969 517.96875 270.738281 515.527344 274.789062 512.730469 C 277.898438 510.578125 282.070312 505.78125 280.46875 501.703125 C 278.816406 497.488281 272.78125 497.957031 269.675781 500.308594 C 263.339844 505.097656 260.582031 517.316406 264.355469 524.285156 C 266.351562 527.976562 271.222656 529.132812 275.085938 528.820312 C 279.203125 528.488281 288.65625 525.589844 287.882812 520.324219 C 287.800781 519.746094 286.71875 519.730469 286.316406 519.882812 C 280.789062 521.96875 272.363281 531.050781 268.933594 521.527344 C 266.921875 515.941406 269.300781 508.363281 272.480469 503.6875 C 272.765625 503.273438 274.589844 501.300781 274.75 501.5 C 276.308594 503.40625 274.21875 506.628906 273.238281 508.253906 C 271.878906 510.507812 269.238281 511.929688 267.050781 513.261719 C 262.617188 515.964844 257.207031 519.546875 252.007812 520.488281 C 251.253906 520.625 250.5625 521.394531 251.695312 521.652344 " fill-opacity="1" fill-rule="nonzero"/><path fill="#00ff00" d="M 277.238281 526.789062 C 284.589844 528.328125 291.917969 518.414062 295.976562 513.640625 C 298.714844 510.425781 302.273438 506.59375 301.601562 502.066406 C 300.886719 497.238281 294.015625 498.371094 291.140625 500.03125 C 284.367188 503.941406 282.351562 516.238281 284.734375 522.976562 C 286.085938 526.796875 290.519531 528.992188 294.386719 528.972656 C 298.101562 528.949219 305.789062 526.921875 303.761719 521.953125 C 303.542969 521.421875 302.402344 521.53125 302.019531 521.726562 C 298.785156 523.371094 295.574219 527.789062 291.925781 524.839844 C 289.746094 523.078125 289.453125 519.636719 289.417969 517.066406 C 289.34375 512 291.144531 505.527344 295.03125 502.039062 C 296.636719 500.59375 296.21875 503.042969 296.113281 504.273438 C 295.96875 505.996094 294.449219 508.183594 293.402344 509.523438 C 291.890625 511.453125 290.296875 513.324219 288.671875 515.160156 C 285.894531 518.300781 281.582031 524.660156 277.238281 525.6875 C 276.464844 525.871094 276.433594 526.621094 277.238281 526.789062 " fill-opacity="1" fill-rule="nonzero"/><path fill="#00ff00" d="M 300.085938 527.070312 C 304.167969 526.171875 307.097656 522.972656 310.152344 520.359375 C 311.652344 519.078125 313.105469 518.140625 315.117188 518.261719 C 315.625 518.292969 318.941406 518.292969 317.65625 516.628906 C 315.355469 513.652344 309.585938 515.363281 307.058594 517.023438 C 305.367188 518.136719 303.941406 519.527344 302.511719 520.953125 C 301.101562 522.363281 299.746094 524.453125 297.789062 525.144531 C 294.875 526.175781 298.625 527.390625 300.085938 527.070312 " fill-opacity="1" fill-rule="nonzero"/><path fill="#00ff00" d="M 329.382812 487.269531 C 327.898438 494.5 327.484375 501.753906 327.074219 509.101562 C 326.867188 512.859375 326.660156 516.613281 326.394531 520.363281 C 326.242188 522.515625 326.160156 524.691406 328.917969 524.691406 C 331.402344 524.691406 331.9375 523.070312 332.074219 520.910156 C 332.316406 516.980469 332.460938 513.039062 332.621094 509.101562 C 332.925781 501.78125 332.664062 494.578125 332.679688 487.269531 C 332.679688 486.113281 329.609375 486.171875 329.382812 487.269531 " fill-opacity="1" fill-rule="nonzero"/><path fill="#00ff00" d="M 325.242188 490.246094 C 330.519531 489.007812 338.792969 484.726562 341.953125 491.382812 C 344.011719 495.714844 339.628906 500.957031 335.753906 502.210938 C 337.152344 503.097656 338.546875 503.984375 339.945312 504.871094 C 342.410156 503.742188 344.488281 502.964844 346.140625 505.617188 C 347.59375 507.960938 347.496094 511.546875 347.160156 514.164062 C 346.238281 521.265625 340.625 524.542969 334.058594 525.222656 C 324.105469 526.253906 314.050781 520.886719 307.957031 531.65625 C 310.132812 531.65625 312.308594 531.65625 314.484375 531.65625 C 314.332031 531.34375 314.175781 531.03125 314.015625 530.722656 C 313.414062 529.515625 311.0625 529.796875 310.101562 530.214844 C 309.386719 530.523438 308.820312 530.703125 308.296875 531.261719 C 306.25 533.453125 313.15625 534.863281 314.484375 532.539062 C 316.128906 529.671875 317.742188 527.546875 321.242188 527.828125 C 325.082031 528.136719 328.789062 528.726562 332.660156 528.675781 C 339.546875 528.585938 346.902344 526.988281 351.296875 521.292969 C 354.703125 516.878906 356.117188 507.132812 351.523438 502.972656 C 347.039062 498.90625 340.050781 500.085938 335.054688 502.476562 C 331.640625 504.109375 337.59375 505.703125 339.246094 505.136719 C 345.421875 503.015625 352.492188 495.140625 346.949219 488.71875 C 341.453125 482.359375 329.273438 484.25 323.582031 489.429688 C 322.734375 490.203125 324.886719 490.328125 325.242188 490.246094 " fill-opacity="1" fill-rule="nonzero"/><path fill="#00ff00" d="M 353.070312 512.476562 C 356.214844 510.9375 358.324219 507.933594 359.777344 504.820312 C 360.316406 503.660156 362.046875 500.070312 360.789062 499.019531 C 359.914062 498.289062 357.667969 498.433594 357.214844 499.65625 C 356.4375 501.742188 358.464844 504.328125 360.324219 505.238281 C 363.878906 506.980469 377.097656 505.65625 375.621094 499.425781 C 375.179688 497.570312 371.644531 497.859375 370.4375 498.605469 C 367.234375 500.578125 366.808594 504.167969 366.257812 507.664062 C 365.460938 512.726562 362.667969 524.542969 369.441406 526.984375 C 377.96875 530.054688 385.429688 521.972656 390.269531 516.183594 C 393.402344 512.445312 401.34375 504.375 394.917969 500.121094 C 388.582031 495.929688 382.171875 502.199219 379.535156 507.542969 C 376.464844 513.765625 376.515625 522.996094 383.007812 526.710938 C 388.03125 529.585938 400.972656 528.15625 402.839844 521.703125 C 403.371094 519.871094 399.894531 519.910156 398.886719 520.214844 C 395.015625 521.378906 389.597656 527.03125 386.203125 522.433594 C 383.617188 518.921875 385.003906 511.550781 386.773438 507.9375 C 387.648438 506.148438 388.863281 504.503906 390.300781 503.132812 C 391.382812 502.101562 388.875 501.402344 390.011719 503.089844 C 390.625 504.003906 390.050781 505.488281 389.714844 506.367188 C 388.171875 510.421875 384.578125 513.730469 381.960938 517.109375 C 380.066406 519.5625 378.003906 521.910156 375.332031 523.539062 C 372.058594 525.53125 371.257812 522.878906 370.902344 520.167969 C 370.226562 515.070312 371.09375 509.015625 372.105469 504.023438 C 372.308594 503.015625 372.609375 501.960938 373.128906 501.066406 C 374.355469 499.933594 373.722656 499.8125 371.234375 500.707031 C 371.175781 501.78125 370.621094 502.535156 369.570312 502.960938 C 367.605469 504.15625 363.496094 505.097656 361.742188 503.734375 C 361.398438 503.46875 358.414062 500.34375 358.414062 500.195312 C 358.398438 503.863281 354.738281 510.140625 351.84375 511.875 C 350.976562 512.394531 352.617188 512.699219 353.070312 512.476562 " fill-opacity="1" fill-rule="nonzero"/><path fill="#00ff00" d="M 421.011719 502.738281 C 422.609375 500.808594 415.355469 499.933594 414.78125 500 C 406.453125 501.003906 402.992188 509.359375 401.25 516.59375 C 400.34375 520.359375 400.464844 524.808594 404.066406 526.980469 C 406.96875 528.730469 411.476562 527.175781 413.96875 525.445312 C 417.699219 522.851562 420.011719 518.945312 421.285156 514.628906 C 422.527344 510.414062 424.421875 506.25 421.003906 502.707031 L 420.84375 502.71875 C 419.484375 504.683594 417.8125 505.554688 417.195312 507.96875 C 416.359375 511.269531 415.566406 514.601562 414.214844 517.738281 C 413.25 519.980469 411.800781 521.976562 409.9375 523.535156 C 405.921875 526.890625 405.769531 520.421875 406.042969 517.75 C 406.5625 512.554688 408.9375 506.332031 413.015625 502.898438 C 413.765625 502.269531 420.890625 500.269531 420.839844 502.730469 L 421.011719 502.738281 " fill-opacity="1" fill-rule="nonzero"/><path fill="#00ff00" d="M 431.621094 516.84375 C 435.640625 517.3125 439.757812 514.527344 442.417969 511.765625 C 445.023438 509.054688 448.859375 505.867188 448.71875 501.769531 C 448.660156 500.035156 443.824219 500.03125 443.683594 501.769531 C 443.4375 504.847656 440.78125 507.640625 438.863281 509.878906 C 437.765625 511.15625 436.679688 512.460938 435.46875 513.628906 C 434.230469 514.824219 432.519531 515.296875 431.308594 516.46875 C 431.097656 516.679688 431.449219 516.824219 431.621094 516.84375 " fill-opacity="1" fill-rule="nonzero"/><path fill="#00ff00" d="M 434.523438 517.703125 C 435.167969 517.085938 437.441406 514.480469 438.101562 515.878906 C 438.378906 516.453125 438.351562 517.210938 438.375 517.832031 C 438.4375 519.554688 438.566406 521.132812 439.097656 522.792969 C 440.519531 527.242188 445.8125 527.554688 449.699219 527.03125 C 453.316406 526.542969 450.804688 523.949219 448.25 524.453125 C 443.121094 525.460938 442.992188 520.535156 441.390625 516.933594 C 440.863281 515.753906 440.003906 514.632812 438.648438 514.425781 C 436.332031 514.066406 435.332031 515.835938 434.351562 517.667969 L 434.523438 517.703125 " fill-opacity="1" fill-rule="nonzero"/><path fill="#00ff00" d="M 428.800781 524.59375 C 435.425781 523.84375 435.589844 515.394531 436.273438 510.375 C 436.878906 505.933594 437.136719 501.480469 437.320312 497.007812 C 437.449219 493.949219 438.277344 490.066406 437.230469 487.175781 C 436.851562 486.125 434.402344 486.453125 433.882812 487.175781 C 432.476562 489.152344 432.640625 491.980469 432.367188 494.351562 C 431.921875 498.199219 431.769531 502.074219 431.296875 505.921875 C 430.886719 509.277344 430.28125 512.644531 429.648438 515.964844 C 429.285156 517.851562 428.488281 519.828125 427.800781 521.628906 C 427.449219 522.542969 426.601562 522.871094 426.863281 523.867188 C 427.0625 524.632812 428.164062 524.664062 428.800781 524.59375 " fill-opacity="1" fill-rule="nonzero"/></svg>